<?xml version="1.0" encoding="UTF-8"?>
<svg id="BARTHAUER_software_tunisia_RGB" xmlns="http://www.w3.org/2000/svg" viewBox="0 0 340.16 127.09">
  <defs>
    <style>
      .cls-1 {
        fill: none;
      }

      .cls-1, .cls-2, .cls-3, .cls-4 {
        stroke-width: 0px;
      }

      .cls-2 {
        fill: #193755;
      }

      .cls-3 {
        fill: #06d8f3;
      }

      .cls-4 {
        fill: #fff;
      }
    </style>
  </defs>
  <rect class="cls-4" y=".11" width="340.16" height="126.87"/>
  <g id="schutzzone">
    <rect class="cls-1" width="340.16" height="127.09"/>
  </g>
  <g id="LOGO">
    <path class="cls-2" d="M28.23,28.25h15.98c5.58,0,8.24,3.63,8.24,7.18s-2.16,5.87-4.82,6.47c3,.46,5.37,3.34,5.37,6.89,0,4.1-2.75,7.65-8.28,7.65h-16.48v-28.19ZM42.56,39.15c1.48,0,2.49-1.06,2.49-2.45s-1.01-2.41-2.49-2.41h-7.06v4.86h7.06ZM42.81,50.39c1.73,0,2.79-1.06,2.79-2.58,0-1.44-1.01-2.66-2.79-2.66h-7.31v5.24h7.31Z"/>
    <path class="cls-2" d="M79.24,52.17h-11.71l-1.44,4.27h-7.9l10.61-28.19h9.13l10.65,28.19h-7.9l-1.44-4.27ZM69.44,46.04h7.9l-3.97-11.45-3.93,11.45Z"/>
    <path class="cls-2" d="M105.87,46.88h-3.72v9.55h-7.27v-28.19h14.12c6.25,0,9.81,4.14,9.81,9.38,0,4.9-3,7.52-5.62,8.45l5.75,10.35h-8.33l-4.73-9.55ZM107.89,34.37h-5.75v6.34h5.75c1.9,0,3.51-1.23,3.51-3.17s-1.61-3.17-3.51-3.17Z"/>
    <path class="cls-2" d="M132.91,34.59h-7.9v-6.34h23.03v6.34h-7.86v21.85h-7.27v-21.85Z"/>
    <path class="cls-2" d="M174.71,45.11h-11.71v11.33h-7.27v-28.19h7.27v10.52h11.71v-10.52h7.27v28.19h-7.27v-11.33Z"/>
    <path class="cls-2" d="M209.32,52.17h-11.71l-1.44,4.27h-7.9l10.61-28.19h9.13l10.65,28.19h-7.9l-1.44-4.27ZM199.51,46.04h7.9l-3.97-11.45-3.93,11.45Z"/>
    <path class="cls-2" d="M223.39,28.25h7.4v16.53c0,3.34,1.77,5.75,5.71,5.75s5.66-2.41,5.66-5.75v-16.53h7.4v16.73c0,7.02-4.02,11.96-13.06,11.96s-13.1-4.99-13.1-11.92v-16.78Z"/>
    <path class="cls-2" d="M258.85,28.25h20.67v6.13h-13.4v4.69h13.1v6.17h-13.1v5.07h13.4v6.13h-20.67v-28.19Z"/>
    <path class="cls-2" d="M298.95,46.88h-3.72v9.55h-7.27v-28.19h14.12c6.25,0,9.81,4.14,9.81,9.38,0,4.9-3,7.52-5.62,8.45l5.75,10.35h-8.33l-4.73-9.55ZM300.98,34.37h-5.75v6.34h5.75c1.9,0,3.51-1.23,3.51-3.17s-1.61-3.17-3.51-3.17Z"/>
    <path class="cls-2" d="M29.12,95.8c.91,1.06,2.39,2.05,4.39,2.05,2.89,0,3.72-1.61,3.72-2.81,0-1.98-1.9-2.53-3.86-3.06-2.22-.61-4.58-1.25-4.58-3.84,0-2.3,2.07-3.76,4.62-3.76,2.09,0,3.67.74,4.77,1.98l-.8.89c-1.01-1.22-2.45-1.77-4.03-1.77-1.88,0-3.29,1.08-3.29,2.6,0,1.67,1.75,2.15,3.67,2.68,2.26.63,4.77,1.35,4.77,4.22,0,1.8-1.2,3.97-5,3.97-2.32,0-4.08-.93-5.15-2.24l.78-.91Z"/>
    <path class="cls-2" d="M54.05,84.38c4.12,0,6.84,3.17,6.84,7.29s-2.72,7.28-6.84,7.28-6.84-3.17-6.84-7.28,2.7-7.29,6.84-7.29ZM54.05,85.48c-3.42,0-5.58,2.62-5.58,6.19s2.15,6.19,5.58,6.19,5.57-2.64,5.57-6.19-2.2-6.19-5.57-6.19Z"/>
    <path class="cls-2" d="M70.22,84.61h8.93v1.1h-7.73v5.22h7.58v1.1h-7.58v6.67h-1.2v-14.09Z"/>
    <path class="cls-2" d="M91.6,85.71h-4.6v-1.1h10.43v1.1h-4.6v12.99h-1.23v-12.99Z"/>
    <path class="cls-2" d="M113.66,86.6l-3.36,12.1h-1.35l-4.03-14.09h1.35l3.4,12.39,3.46-12.39h1.08l3.46,12.39,3.4-12.39h1.35l-4.01,14.09h-1.35l-3.4-12.1Z"/>
    <path class="cls-2" d="M138.72,95.23h-7.5l-1.42,3.46h-1.35l5.77-14.09h1.5l5.77,14.09h-1.35l-1.42-3.46ZM131.6,94.13h6.74l-3.38-8.34-3.36,8.34Z"/>
    <path class="cls-2" d="M154.21,92.87h-3.1v5.83h-1.2v-14.09h5.26c2.43,0,4.29,1.54,4.29,4.12s-1.82,3.97-3.91,4.05l4.08,5.91h-1.46l-3.95-5.83ZM155.05,85.71h-3.95v6.06h3.95c1.86,0,3.13-1.27,3.13-3.04s-1.27-3.02-3.13-3.02Z"/>
    <path class="cls-2" d="M168.79,84.61h8.93v1.1h-7.73v5.22h7.58v1.1h-7.58v5.57h7.73v1.1h-8.93v-14.09Z"/>
    <path class="cls-2" d="M202.45,85.71h-4.6v-1.1h10.43v1.1h-4.6v12.99h-1.23v-12.99Z"/>
    <path class="cls-2" d="M217.11,84.61h1.22v8.66c0,2.85,1.5,4.58,4.27,4.58s4.27-1.73,4.27-4.58v-8.66h1.22v8.68c0,3.49-1.86,5.66-5.49,5.66s-5.49-2.2-5.49-5.66v-8.68Z"/>
    <path class="cls-2" d="M239.15,86.53v12.16h-1.2v-14.09h1.22l8.83,11.99v-11.99h1.2v14.09h-1.18l-8.87-12.16Z"/>
    <path class="cls-2" d="M259.06,84.61h1.2v14.09h-1.2v-14.09Z"/>
    <path class="cls-2" d="M270.11,95.8c.91,1.06,2.39,2.05,4.39,2.05,2.89,0,3.72-1.61,3.72-2.81,0-1.98-1.9-2.53-3.87-3.06-2.22-.61-4.58-1.25-4.58-3.84,0-2.3,2.07-3.76,4.63-3.76,2.09,0,3.67.74,4.77,1.98l-.8.89c-1.01-1.22-2.45-1.77-4.03-1.77-1.88,0-3.29,1.08-3.29,2.6,0,1.67,1.75,2.15,3.67,2.68,2.26.63,4.77,1.35,4.77,4.22,0,1.8-1.2,3.97-5,3.97-2.32,0-4.08-.93-5.15-2.24l.78-.91Z"/>
    <path class="cls-2" d="M288.72,84.61h1.2v14.09h-1.2v-14.09Z"/>
    <path class="cls-2" d="M308.6,95.23h-7.5l-1.42,3.46h-1.35l5.77-14.09h1.5l5.77,14.09h-1.35l-1.42-3.46ZM301.48,94.13h6.74l-3.38-8.34-3.36,8.34Z"/>
  </g>
  <g id="turquoise-line">
    <rect id="line" class="cls-3" x="120.16" y="69.22" width="99.83" height="2.5"/>
  </g>
</svg>